<svg xmlns="http://www.w3.org/2000/svg" xmlns:xlink="http://www.w3.org/1999/xlink" version="1.1" x="0px" y="0px" viewBox="0 0 64 80" enable-background="new 0 0 64 64" xml:space="preserve"><path d="M56.917,54.479c-0.211-0.854,1.495-1.015,1.84-3.731c0.347-2.72-1.838-0.106-1.838-0.106s-1.599,1.84-7.993,1.438  c-5.891-0.367-12.914-3.335-12.677-13.795c0.017-0.687,0.233-1.302,0.442-1.386c0.209-0.082,0.789,0.227,1.148,0.81  c0.889,1.438,1.682,3.772,2.115,5.187c0.202,0.654,0.693,0.744,0.932,0.102c0.785-2.137,0.211-5.057-0.341-6.963  c-0.188-0.659,0.011-1.488,0.455-1.899c0.442-0.411,1.118-0.343,1.567,0.175c3.008,3.455,5.748,5.143,9.16,5.143  c4.076,0,7.834-1.278,6.875-14.229c-0.961-12.95-6.557-16.947-10.871-16.307c-2.782,0.411-4.707,1.818-5.721,2.768  c-0.502,0.468-0.847,0.949-0.847,1.001c-0.001,0.051-0.397-0.299-0.929-0.733c-2.325-1.902-5.248-3.035-8.422-3.035  c-3.132,0-6.018,1.102-8.33,2.957c-0.534,0.429-0.932,0.795-0.934,0.769c0-0.028-0.343-0.49-0.843-0.958  c-1.016-0.949-2.939-2.356-5.721-2.768C11.671,8.272,6.075,12.27,5.115,25.22c-0.959,12.95,2.799,14.229,6.876,14.229  c3.396,0,6.126-1.67,9.116-5.092c0.451-0.518,0.953-0.783,1.151-0.59c0.199,0.193,0.349,0.34,0.332,0.328  c-0.016-0.014-0.236,0.493-0.449,1.146c-0.587,1.8-1.485,5.299-0.582,7.755c0.236,0.643,0.729,0.555,0.93-0.1  c0.479-1.562,1.399-4.256,2.399-5.609c0.407-0.553,0.883-0.24,0.862,0.445c-0.128,4.168,1.244,11.76,7.503,16.586  c6.546,5.05,16.089,4.923,21.261,2.766c0.633-0.266,1.617-0.25,2.293-0.129c0.416,0.074,0.945,0.119,1.604,0.083  C60.327,56.93,57.13,55.331,56.917,54.479z M26.832,22.501c-0.668,0-1.21-0.542-1.21-1.21s0.542-1.21,1.21-1.21  s1.21,0.542,1.21,1.21S27.5,22.501,26.832,22.501z M35.801,21.291c0-0.668,0.542-1.21,1.211-1.21c0.668,0,1.209,0.542,1.209,1.21  s-0.541,1.21-1.209,1.21C36.343,22.501,35.801,21.959,35.801,21.291z"/><text x="0" y="79" fill="#000000" font-size="5px" font-weight="bold" font-family="'Helvetica Neue', Helvetica, Arial-Unicode, Arial, Sans-serif">Created by Henry Kennedy</text><text x="0" y="84" fill="#000000" font-size="5px" font-weight="bold" font-family="'Helvetica Neue', Helvetica, Arial-Unicode, Arial, Sans-serif">from the Noun Project</text></svg>